<svg xmlns="http://www.w3.org/2000/svg" viewBox="0 0 920 1480" preserveAspectRatio="none"><defs><filter id="s"><feDropShadow dx="0" dy="0" stdDeviation="2" flood-color="#fff" flood-opacity=".35"/></filter></defs><g filter="url(#s)"><line x1="112" x2="808" y1="175.12" y2="175.12" stroke="#d9c3a2" stroke-width="2.6" opacity=".95"/><line x1="112" x2="808" y1="179.12" y2="179.12" stroke="#27170e" stroke-width="1.4" opacity=".5"/><line x1="112" x2="808" y1="272.46" y2="272.46" stroke="#d9c3a2" stroke-width="2.6" opacity=".95"/><line x1="112" x2="808" y1="276.46" y2="276.46" stroke="#27170e" stroke-width="1.4" opacity=".5"/><line x1="112" x2="808" y1="364.33" y2="364.33" stroke="#d9c3a2" stroke-width="2.6" opacity=".95"/><line x1="112" x2="808" y1="368.33" y2="368.33" stroke="#27170e" stroke-width="1.4" opacity=".5"/><line x1="112" x2="808" y1="451.04" y2="451.04" stroke="#d9c3a2" stroke-width="2.6" opacity=".95"/><line x1="112" x2="808" y1="455.04" y2="455.04" stroke="#27170e" stroke-width="1.4" opacity=".5"/><line x1="112" x2="808" y1="532.89" y2="532.89" stroke="#d9c3a2" stroke-width="2.6" opacity=".95"/><line x1="112" x2="808" y1="536.89" y2="536.89" stroke="#27170e" stroke-width="1.4" opacity=".5"/><line x1="112" x2="808" y1="610.14" y2="610.14" stroke="#d9c3a2" stroke-width="2.6" opacity=".95"/><line x1="112" x2="808" y1="614.14" y2="614.14" stroke="#27170e" stroke-width="1.4" opacity=".5"/><line x1="112" x2="808" y1="683.06" y2="683.06" stroke="#d9c3a2" stroke-width="2.6" opacity=".95"/><line x1="112" x2="808" y1="687.06" y2="687.06" stroke="#27170e" stroke-width="1.4" opacity=".5"/><line x1="112" x2="808" y1="751.89" y2="751.89" stroke="#d9c3a2" stroke-width="2.6" opacity=".95"/><line x1="112" x2="808" y1="755.89" y2="755.89" stroke="#27170e" stroke-width="1.4" opacity=".5"/><line x1="112" x2="808" y1="816.85" y2="816.85" stroke="#d9c3a2" stroke-width="2.6" opacity=".95"/><line x1="112" x2="808" y1="820.85" y2="820.85" stroke="#27170e" stroke-width="1.4" opacity=".5"/><line x1="112" x2="808" y1="878.16" y2="878.16" stroke="#d9c3a2" stroke-width="2.6" opacity=".95"/><line x1="112" x2="808" y1="882.16" y2="882.16" stroke="#27170e" stroke-width="1.4" opacity=".5"/><line x1="112" x2="808" y1="936.04" y2="936.04" stroke="#d9c3a2" stroke-width="2.6" opacity=".95"/><line x1="112" x2="808" y1="940.04" y2="940.04" stroke="#27170e" stroke-width="1.4" opacity=".5"/><line x1="112" x2="808" y1="990.67" y2="990.67" stroke="#d9c3a2" stroke-width="3.6" opacity=".95"/><line x1="112" x2="808" y1="994.67" y2="994.67" stroke="#27170e" stroke-width="1.4" opacity=".5"/><line x1="112" x2="808" y1="1042.23" y2="1042.23" stroke="#d9c3a2" stroke-width="2.6" opacity=".95"/><line x1="112" x2="808" y1="1046.23" y2="1046.23" stroke="#27170e" stroke-width="1.4" opacity=".5"/><line x1="112" x2="808" y1="1090.89" y2="1090.89" stroke="#d9c3a2" stroke-width="2.6" opacity=".95"/><line x1="112" x2="808" y1="1094.89" y2="1094.89" stroke="#27170e" stroke-width="1.4" opacity=".5"/><line x1="112" x2="808" y1="1136.83" y2="1136.83" stroke="#d9c3a2" stroke-width="2.6" opacity=".95"/><line x1="112" x2="808" y1="1140.83" y2="1140.83" stroke="#27170e" stroke-width="1.4" opacity=".5"/><line x1="112" x2="808" y1="1180.19" y2="1180.19" stroke="#d9c3a2" stroke-width="2.6" opacity=".95"/><line x1="112" x2="808" y1="1184.19" y2="1184.19" stroke="#27170e" stroke-width="1.4" opacity=".5"/><line x1="112" x2="808" y1="1221.11" y2="1221.11" stroke="#d9c3a2" stroke-width="2.6" opacity=".95"/><line x1="112" x2="808" y1="1225.11" y2="1225.11" stroke="#27170e" stroke-width="1.4" opacity=".5"/><line x1="112" x2="808" y1="1259.74" y2="1259.74" stroke="#d9c3a2" stroke-width="2.6" opacity=".95"/><line x1="112" x2="808" y1="1263.74" y2="1263.74" stroke="#27170e" stroke-width="1.4" opacity=".5"/><line x1="112" x2="808" y1="1296.20" y2="1296.20" stroke="#d9c3a2" stroke-width="2.6" opacity=".95"/><line x1="112" x2="808" y1="1300.20" y2="1300.20" stroke="#27170e" stroke-width="1.4" opacity=".5"/><line x1="112" x2="808" y1="1330.61" y2="1330.61" stroke="#d9c3a2" stroke-width="2.6" opacity=".95"/><line x1="112" x2="808" y1="1334.61" y2="1334.61" stroke="#27170e" stroke-width="1.4" opacity=".5"/><line x1="112" x2="808" y1="1363.09" y2="1363.09" stroke="#d9c3a2" stroke-width="2.6" opacity=".95"/><line x1="112" x2="808" y1="1367.09" y2="1367.09" stroke="#27170e" stroke-width="1.4" opacity=".5"/><line x1="112" x2="808" y1="1393.75" y2="1393.75" stroke="#d9c3a2" stroke-width="2.6" opacity=".95"/><line x1="112" x2="808" y1="1397.75" y2="1397.75" stroke="#27170e" stroke-width="1.4" opacity=".5"/><line x1="112" x2="808" y1="1422.69" y2="1422.69" stroke="#d9c3a2" stroke-width="2.6" opacity=".95"/><line x1="112" x2="808" y1="1426.69" y2="1426.69" stroke="#27170e" stroke-width="1.4" opacity=".5"/><line x1="112" x2="808" y1="1450.00" y2="1450.00" stroke="#d9c3a2" stroke-width="3.6" opacity=".95"/><line x1="112" x2="808" y1="1454.00" y2="1454.00" stroke="#27170e" stroke-width="1.4" opacity=".5"/></g></svg>