<?xml version="1.0" encoding="UTF-8"?>
<svg id="Layer_1" data-name="Layer 1" xmlns="http://www.w3.org/2000/svg" viewBox="0 0 870.74 133.18">
  <defs>
    <style>
      .cls-1, .cls-2 {
        fill: #fff;
        stroke: #000;
        stroke-miterlimit: 10;
      }

      .cls-2 {
        stroke-width: .75px;
      }
    </style>
  </defs>
  <path class="cls-1" d="M92.4,5.95c-.51.38-.8.64-.89.79v11.86c-1.18,1.67-2.82,3.3-4.94,4.89-1.95,1.5-4.02,2.89-6.22,4.16-.85.53-1.94,1.12-3.3,1.8-1.1.52-2.24,1.09-3.42,1.69-.17.08-.36.17-.57.28-.21.11-.36.21-.44.28V10.44l-6.22-8.99h-3.55c0-.15-.04-.3-.13-.45-.34-.52-.8-.64-1.39-.34-.09,0-.63.26-1.65.79H5.65c-.43,0-.74.19-.95.56-.21.38-.15.71.19,1.01l10.02,9.33c1.35,1.27,2.87,1.46,4.56.56,10.06-5.09,19.79-7.64,29.17-7.64h3.68c-1.27.75-2.41,1.43-3.42,2.02-4.06,2.4-7.99,5.02-11.8,7.87-7.69,5.85-14.29,12.33-19.79,19.45-5.75,7.42-10.06,15.32-12.94,23.71C1.42,67.09.15,75.9.58,84.74c.25,4.95.97,9.41,2.16,13.38.08.3.25.86.51,1.68.08.08.17.23.25.45.17.52.3.9.38,1.12.25.6.51,1.12.76,1.58.25.52.51,1.05.76,1.57,1.1,2.1,2.33,4.12,3.68,6.07,2.7,3.89,5.96,7.38,9.76,10.45,3.81,3.15,7.99,5.73,12.56,7.76,4.9,2.1,9.81,3.33,14.71,3.71,5.58.45,10.61-.38,15.09-2.47.93-.38,2.03-.94,3.3-1.68,1.18-.83,2.16-1.57,2.92-2.25,1.6-1.5,3.13-3.3,4.57-5.39,2.2-3.37,3.76-7.49,4.69-12.36.08-.23-.04-.38-.38-.45-.34-.08-.55.04-.63.34-1.27,4.57-3.09,8.43-5.45,11.58-2.79,3.67-6.26,6.26-10.4,7.76-3.97,1.5-8.37,1.95-13.19,1.35-4.31-.6-8.58-1.99-12.81-4.16-3.98-1.95-7.57-4.46-10.78-7.53-3.22-2.92-5.88-6.18-7.99-9.78-1.1-1.72-2.07-3.52-2.92-5.39-.59-1.5-1.27-3.41-2.03-5.73-.68-2.25-1.18-4.23-1.52-5.96-.43-1.95-.72-3.97-.89-6.07-.17-1.5-.26-3.03-.26-4.61,1.02-2.17,2.2-4.23,3.55-6.18,1.18-1.8,2.7-3.63,4.56-5.51,1.61-1.72,3.43-3.37,5.46-4.95,6-4.72,14.71-9.82,26.13-15.29,1.86-.9,4.46-2.12,7.8-3.66,3.34-1.53,5.43-2.49,6.28-2.87v53.5c0,.83.61,1.65,1.84,2.47,1.22.83,2.49,1.27,3.81,1.35,1.31.07,2.47-.34,3.49-1.24,1.78-2.62,5.2-6.3,10.27-11.01.25-.3.42-.52.51-.68.08-.15.04-.26-.13-.34-.17-.08-.36-.11-.57-.11s-.51-.08-.89-.23c-.38-.15-.74-.3-1.08-.45l-3.68,1.35c-.51.23-.99.21-1.46-.05-.47-.26-.7-.62-.7-1.07v-49c1.18-.6,2.16-1.12,2.92-1.57,1.27-.68,2.41-1.31,3.42-1.91,1.27-.75,2.41-1.46,3.42-2.13,2.54-1.72,4.61-3.33,6.22-4.83,1.18-1.12,2.07-2.06,2.66-2.81.05-.07.16-.22.25-.35v74.19c0,.38.25.58.76.62.51.04.89-.09,1.14-.39.17-.15,1.29-.99,3.36-2.53,2.07-1.53,3.23-2.6,3.49-3.2.08-.22.13-.79.13-1.68V1.9c-.09-1.8-2.75-.45-7.99,4.05ZM61.2,36.63c-.09.08-.27.17-.57.28-.3.11-.55.21-.76.28-.21.08-.4.19-.57.33-6.18,2.55-10.99,4.65-14.46,6.3-5.58,2.62-10.27,5.06-14.08,7.31-4.99,2.92-9.26,6-12.81,9.22-1.95,1.72-3.76,3.56-5.45,5.51-1.61,1.95-3.05,4.05-4.31,6.3-.09.23-.3.64-.63,1.24.42-4.57,1.27-9.1,2.54-13.6,2.37-8.02,6.09-15.66,11.16-22.93,4.9-6.97,10.95-13.45,18.14-19.45,3.55-2.92,7.23-5.62,11.04-8.09,2.03-1.35,4.14-2.7,6.34-4.05h4.44v31.36Z"/>
  <g>
    <path class="cls-1" d="M117.58,16.51c-2.31,0-4.3.83-5.96,2.48-1.66,1.65-2.48,3.66-2.48,6.01s.83,4.36,2.48,6.01c1.65,1.65,3.64,2.48,5.96,2.48s4.25-.83,5.79-2.48c1.66-1.65,2.48-3.66,2.48-6.01s-.8-4.36-2.4-6.01c-1.6-1.65-3.56-2.48-5.88-2.48Z"/>
    <path class="cls-1" d="M118.99,43.1c-2.71.35-5.11.77-7.2,1.24v53.66c0,.39.33.61.99.65.66.04,1.16-.1,1.49-.41.22-.16,1.68-1.04,4.39-2.66,2.7-1.61,4.22-2.73,4.55-3.36.11-.23.16-.83.16-1.77v-47.64c-.22-.16-1.68-.06-4.39.29Z"/>
  </g>
  <path class="cls-1" d="M159.08,86.45c-3.52,1.56-6.63,3.15-9.33,4.78-.58.24-1.01.24-1.3,0-1.83-1.55-3.31-3.27-4.41-5.15-1.11-1.88-1.88-3.88-2.32-6.01-.43-2.13-.7-3.84-.8-5.15-.1-1.31-.14-2.98-.14-5.03,1.16-.16,10.9-1.23,29.23-3.19l.43-5.15-5.21.98c.39-1.39,1.5-4.58,3.33-9.57.39-.9-1.38-2.86-5.28-5.89-3.91-3.03-6.68-4.91-8.32-5.64-1.35-.57-2.92-.84-4.7-.8-1.79.04-3.26.47-4.41,1.29-7.14,4.91-11.82,8.26-14.04,10.06-.77.66-1.16,1.27-1.16,1.84v23.67c0,.49.09,1.09.29,1.78.19.7.51,1.59.94,2.7.44,1.1,1.09,2.29,1.96,3.56.87,1.27,1.9,2.6,3.11,3.99,1.21,1.39,2.8,2.86,4.77,4.41,1.98,1.56,4.17,3.03,6.59,4.42l.58.25c3.18-2.86,6.95-5.66,11.29-8.4,4.34-2.74,7.91-4.64,10.71-5.71v-2.7c-.49.16-1.69.59-3.62,1.29-1.93.7-4.66,1.82-8.18,3.37ZM140.78,63.58v-14.17c1.93-1.63,4.24-3.15,6.95-4.54.67-.65,1.74-.29,3.18,1.1,3.38,3.43,5.6,5.6,6.66,6.5,1.06.98,1.35,2.13.87,3.43-.1.33-.39,1.29-.87,2.88-.48,1.59-.94,2.9-1.38,3.92-.43,1.02-.84,1.57-1.23,1.66-8.68,1.55-13.41,2.37-14.18,2.45v-3.25Z"/>
  <path class="cls-1" d="M221.24,44.56c-3.71-.56-7.31-1.33-10.8-2.3-.34-.08-3.26,1.15-8.77,3.69-5.51,2.54-9.11,4.17-10.8,4.9v-7.26c0-1.05-1.33-1.67-3.97-1.87-2.64-.2-5.71.14-9.19,1.03-3.49.89-6.19,2.18-8.1,3.87.34.24,1.07.65,2.19,1.21,1.13-.97,2.28-1.59,3.46-1.87,1.18-.28,2.11-.3,2.78-.06.68.24,1.01.65,1.01,1.21v52.13c0,.72,1.46.32,4.39-1.21,4.16-2.26,6.58-3.87,7.26-4.84.11-.24.17-.56.17-.97v-38.1c1.12-.56,4.24-1.96,9.36-4.17,5.12-2.22,7.96-3.41,8.52-3.57.9-.24,1.57-.18,2.02.18.45.36.68,1.19.68,2.48v50.56c.68,0,2.67-1.03,5.99-3.09,3.32-2.06,5.09-3.08,5.31-3.08.45-.08.68-.36.68-.85-.11-.48-.17-8.16-.17-23.04s.05-22.56.17-23.04c0-1.05-.73-1.69-2.2-1.94Z"/>
  <path class="cls-1" d="M341.62,95.83c-2.06,0-3.81-.72-5.26-2.16-1.45-1.44-2.17-3.15-2.17-5.13v-38.32c0-2.7.89-5.13,2.66-7.29l.7-1.08h-5.89l-40.79,51c-7.57-7.37-12.01-16.23-13.32-26.58-1.59-12.86,1.49-25.54,9.25-38.05,6.91-10.88,15.46-18.44,25.65-22.67,12.71-5.4,24.53-3.96,35.46,4.32.19.09.37.05.56-.13.19-.18.19-.31,0-.41-3.83-3.87-8.29-6.45-13.38-7.76-5.09-1.3-10.26-1.44-15.49-.41-5.23,1.03-10.49,2.81-15.77,5.33-5.28,2.52-10.16,5.58-14.65,9.17-4.48,3.6-8.36,7.42-11.63,11.47-10.75,13.31-16.24,28.02-16.47,44.12-.23,16.1,5.26,30.49,16.47,43.17.75.72,1.45.67,2.1-.13,2.62-3.33,16.63-20.87,42.05-52.62v38.58c0,4.59-1.75,9.74-5.26,15.45-3.48,5.68-8.15,11.31-13.99,16.9,1-.04,35.93-28.12,42.94-36.13.09-.18.09-.36,0-.54-.09-.18-.23-.27-.42-.27-1.12,0-2.24.04-3.36.13Z"/>
  <path class="cls-1" d="M385.52,40.2c-3.94,2.27-6.18,3.92-6.71,4.93-.21.25-.32.59-.32,1.01v42.36c-3.19,1.18-5.91,2.53-8.15,4.04-.43.25-1.57-.29-3.44-1.64-1.87-1.35-3.63-2.97-5.28-4.87-1.65-1.9-2.48-3.39-2.48-4.49v-43.12c-.64,0-2.56,1.07-5.75,3.22-3.19,2.15-4.85,3.27-4.96,3.35-.43.08-.64.38-.64.88,0,.34.02,6.01.08,17.01.05,11,.02,16.71-.08,17.13,0,2.27,1.38,5.01,4.16,8.22,2.77,3.2,5.56,5.84,8.39,7.9,2.82,2.07,4.5,2.97,5.04,2.72,1.38-.76,2.85-1.56,4.39-2.4,1.54-.84,2.69-1.47,3.44-1.9.74-.42,1.52-.84,2.32-1.26.8-.42,1.41-.72,1.84-.89.43-.17.8-.25,1.12-.25v2.02c7.57,3.71,11.29,5.22,11.19,4.55,0-.76.02-10.92.08-30.47.05-19.55.08-29.38.08-29.46,0-.76-1.44-.29-4.32,1.39Z"/>
  <path class="cls-1" d="M462.15,82.49c-.21.09-1.37.84-3.48,2.26-2.12,1.42-4.41,2.97-6.89,4.64-2.48,1.68-3.92,2.68-4.33,3.01-.62.42-1.24.46-1.86.12-.21-.17-.88-.52-2.01-1.07-1.14-.54-1.93-.96-2.4-1.26-.47-.29-1.06-.69-1.78-1.19-.72-.5-1.24-1.02-1.55-1.57-.31-.55-.47-1.07-.47-1.57v-46.69h14.86c-.21-1.01.67-2.43,2.63-4.27-.1-.33-.57-.5-1.39-.5-.31.08-2.84.21-7.58.37-4.75.17-7.58.25-8.51.25v-10.92c0-.25-.93-.54-2.78-.88-1.86-.33-3.61-.54-5.26-.63-1.65-.08-2.63.08-2.94.5v12.18c-.83.08-2.76.19-5.8.31-3.05.12-5.03.23-5.96.31-.1.17-.28.65-.54,1.44-.25.77-.48,1.36-.68,1.78-.68.05-1.64.17-2.88.36-2.53.38-4.78.82-6.73,1.32v57.11c0,.42.31.65.93.69.62.04,1.08-.1,1.39-.44.2-.17,1.57-1.11,4.1-2.83,2.53-1.71,3.95-2.91,4.26-3.58.1-.25.15-.88.15-1.88v-50.71h11.77v48.58c.1.08.82.52,2.16,1.32,1.34.79,3.02,1.69,5.03,2.7,2.01,1.01,4,2.03,5.96,3.08,1.96,1.05,3.69,1.97,5.18,2.76,1.5.79,2.3,1.23,2.4,1.32.41.33.88.29,1.39-.12.41-.42,2.92-3.01,7.51-7.78,4.59-4.77,6.99-7.28,7.2-7.53.1-.08,0-.29-.31-.63-.31-.33-.57-.46-.77-.38Z"/>
  <path class="cls-1" d="M506.45,47.86c-8.79-4.71-13.35-7.15-13.71-7.32-2.14-.83-4.22-1.03-6.23-.62-.47.17-1.63.7-3.47,1.61-1.84.91-3.8,1.92-5.87,3.04-2.08,1.11-4.63,2.48-7.65,4.09-3.03,1.61-5.55,2.92-7.56,3.91-.24.91.38,1.92,1.87,3.04,1.48,1.12,2.99,2.11,4.54,2.98,1.54.87,2.25,1.39,2.14,1.55.35.08,2.19-.87,5.52-2.85,3.32-1.99,6.91-4.24,10.77-6.76,3.86-2.52,5.85-3.78,5.97-3.78.83.5,2.07,1.28,3.74,2.36v12.15c0,.33-.12.56-.36.68-.24.13-.47.21-.71.25-.24.04-.65.06-1.25.06-2.97-.08-6.23-.13-9.79-.13-.36,0-1.13.02-2.32.06-1.19.04-2.08.06-2.67.06-.71,0-1.31.25-1.78.74-.6.83-1.13,1.45-1.6,1.86-.83.74-2.11,1.86-3.83,3.35-1.72,1.49-3,2.65-3.83,3.47-2.14,1.9-3.56,3.64-4.27,5.21-.95,1.82-.83,3.64.35,5.46.83,1.41,2.25,3.1,4.27,5.08,3.44,3.31,5.75,5.42,6.94,6.33.95.83,2.02,1.82,3.21,2.98.83.83,1.39,1.24,1.69,1.24s.92-.37,1.87-1.11l.35-.13c2.02-1.82,4.36-3.56,7.03-5.21,2.67-1.65,4.95-2.6,6.85-2.85,0,1.32.15,2.38.45,3.16.29.79.86,1.43,1.69,1.92.47.25,1.04.54,1.69.87.65.33,1.31.68,1.96,1.05s1.22.68,1.69.93c1.31.58,2.37,1.03,3.21,1.36,1.18.33,1.72.04,1.6-.87v-46.64c.12-.74-.71-1.61-2.49-2.6ZM496.48,85.07c0,.17-.66.44-1.96.81-1.31.37-2.85.78-4.63,1.24-1.78.46-3.09.89-3.92,1.3h-.54c-.71-.5-1.55-1.22-2.49-2.17-.95-.95-1.84-2.01-2.67-3.16-.83-1.16-1.31-2.15-1.42-2.98-.36-3.88,2.67-8.18,9.08-12.9.35-.25.83-.37,1.42-.37,1.31-.08,3.09-.17,5.34-.25.71,0,1.18.08,1.42.25.24.17.36.5.36.99v7.07c0,1.41.03,2.91.09,4.53.06,1.61.09,2.88.09,3.78s-.06,1.53-.18,1.86Z"/>
  <path class="cls-1" d="M562.55,42.42c-.65-.57-1.49-1.15-2.51-1.72-1.03-.57-1.86-.9-2.51-.98-.32.49-.89,1.33-1.7,2.52-.81,1.19-1.38,1.99-1.7,2.4-.22-.08-.79-.39-1.7-.92-.92-.53-1.89-1.05-2.91-1.54-1.03-.49-2.38-.88-4.05-1.17-1.68-.28-3.38-.31-5.1-.06-1.73.24-3.78.98-6.15,2.21-2.38,1.23-4.75,2.99-7.13,5.29v-3.81c0-.41-.22-.7-.65-.86l-8.26-3.2c-.54-.25-1.08-.25-1.62,0-.54.24-.81.61-.81,1.11v21.53c.11,20.99.11,32.84,0,35.55l10.36-5.91c.65-.33.97-.86.97-1.6-.11-24.11-.11-36.37,0-36.78.97-1.31,2.7-3.15,5.18-5.53,2.48-2.38,4.64-3.73,6.48-4.06,4.96,2.54,8.26,5,9.88,7.38-1.41,4.18-2.05,6.6-1.95,7.26.33.16.78.37,1.38.61.59.25,1.05.41,1.38.49,2.91-6.48,7.5-12.18,13.76-17.1.21-.16,0-.53-.65-1.11Z"/>
  <path class="cls-1" d="M408.16,15.09c-2.31,0-4.3.79-5.96,2.36-1.66,1.57-2.48,3.48-2.48,5.73s.83,4.16,2.48,5.73c1.65,1.57,3.64,2.36,5.96,2.36s4.25-.79,5.79-2.36c1.66-1.57,2.48-3.48,2.48-5.73s-.8-4.16-2.4-5.73c-1.6-1.57-3.56-2.36-5.88-2.36Z"/>
  <path class="cls-1" d="M611.82,14.67c-1.24,1.22-2.98,2.55-5.21,4-.08.46.06.8.44,1.03.37.23.72.19,1.06-.11l26.3-17.48c.33-.3.43-.65.31-1.03-.12-.38-.43-.57-.93-.57h-56.08c-3.06,0-5.85.28-8.38.85-2.52.57-4.59,1.33-6.2,2.29-1.61.95-3.02,2.08-4.22,3.37-1.2,1.29-2.09,2.61-2.67,3.94-.58,1.33-1.02,2.72-1.3,4.17-.29,1.45-.41,2.78-.37,4,.04,1.22.19,2.36.43,3.43.66,2.97,2.44,5.89,5.34,8.74,2.89,2.86,6.39,5.45,10.49,7.77,4.09,2.33,8.25,4.51,12.47,6.57,4.22,2.06,8.37,4.25,12.47,6.57,4.09,2.32,7.2,4.48,9.31,6.46,2.11,1.98,3.97,4,5.59,6.06,1.61,2.06,3,4.17,4.16,6.34,1.16,2.17,2.05,4.38,2.67,6.63.62,2.25.97,4.51,1.05,6.8.08,2.29-.12,4.59-.62,6.92-.49,2.32-1.32,4.65-2.48,6.97-1.16,2.32-2.61,4.63-4.34,6.91-5.21,6.7-11.21,12.13-17.99,16.28-6.78,4.15-14.12,6.97-22.02,8.46-3.5.66-5.51,1.07-9.17,1.3-.25.44-2.09.87-2.34,1.31,3.6-.17,7.19-.49,10.77-1.06,8.56-1.37,16.85-4.36,24.88-8.97,8.02-4.61,15.14-10.69,21.34-18.23,5.21-6.32,8.62-12.74,10.24-19.25,1.61-6.51,1.3-12.99-.93-19.43-2.24-6.44-6.41-12.4-12.53-17.88-3.31-2.9-7.24-5.47-11.79-7.71-4.55-2.25-8.72-3.96-12.53-5.14-3.81-1.18-7.69-2.65-11.66-4.4-3.97-1.75-7.07-3.66-9.31-5.72-2.57-2.51-4.36-4.82-5.4-6.91-1.04-2.09-1.41-3.81-1.11-5.14.29-1.33.99-2.55,2.11-3.66,1.12-1.1,2.44-1.94,3.97-2.52,1.53-.57,3.12-1.03,4.78-1.37,1.65-.34,3-.57,4.03-.68,1.03-.11,1.8-.17,2.29-.17h34.74c.58,1.37.95,2.53,1.12,3.48.16.96.06,2.02-.31,3.2-.37,1.18-1.18,2.38-2.42,3.6Z"/>
  <path class="cls-1" d="M697.31,64.35c-.09-.31.02-1.02.32-2.12.3-1.1.6-2.19.89-3.29.3-1.1.64-2.3,1.02-3.59.38-1.29.62-2.02.7-2.17-.59-.39-1.94-1.06-4.02-2-2.09-.94-3.26-1.3-3.51-1.06-.51.39-1.83,1.55-3.96,3.47-2.13,1.92-3.32,3.08-3.58,3.47,0,.47.02,4.57.06,12.29.04,7.73.02,11.63-.06,11.71-.09,1.1.72,2.41,2.43,3.94,1.7,1.53,3.49,2.73,5.36,3.59,1.87.86,3.06,1.1,3.58.71,3.49-2.67,7.15-4.86,10.98-6.59.77-.47,1.83-.19,3.19.82-7.75,6.04-13.32,11.45-16.73,16.23-.26,0-.38-.04-.38-.12-.26-.31-.79-.77-1.6-1.35-.81-.59-1.75-1.21-2.81-1.88-1.07-.66-2.11-1.29-3.13-1.88-1.02-.59-2.02-1.14-3-1.65-.98-.51-1.64-.88-1.98-1.12-2.21-1.57-3.62-3.26-4.21-5.06-.34-1.49-.57-3.8-.7-6.94s-.17-6.06-.13-8.76c.04-2.71.08-5.45.13-8.23.04-2.78.06-4.21.06-4.29,1.87-1.57,5.43-4.29,10.66-8.18,5.24-3.88,8.24-5.9,9-6.06.43-.16,1.02-.19,1.79-.12.77.08,1.32.12,1.66.12s.85.12,1.54.35c.68.24,1.15.39,1.4.47.26.08.66.23,1.21.47.55.24.91.35,1.08.35.17-.31.43-.76.77-1.35.34-.59.68-1.19,1.02-1.82.34-.63.64-1.13.89-1.53.17.08.43.17.77.29s.66.27.96.47c.3.2.6.41.89.65.3.24.55.47.77.71.21.24.43.45.64.65.21.2.34.38.38.53s.06.27.06.35c-1.45,1.34-3.49,4.12-6.13,8.35-2.64,4.23-4.68,8.31-6.13,12.23-.17-.08-.36-.17-.57-.29s-.4-.22-.57-.3c-.17-.08-.34-.16-.51-.24-.17-.08-.34-.15-.51-.23Z"/>
  <path class="cls-1" d="M751.34,39.72c.51.09,1.17.42,1.98,1s1.47,1.17,1.98,1.75c.51.58.68.96.51,1.13-4.94,5-8.56,10.8-10.85,17.38-.26-.08-.62-.25-1.09-.5-.47-.25-.83-.46-1.09-.62-.08-.67.43-3.13,1.53-7.38-1.28-2.41-3.87-4.92-7.79-7.5-1.45.33-3.15,1.71-5.11,4.13-1.96,2.42-3.32,4.3-4.09,5.63-.09.42-.09,12.88,0,37.4,0,.75-.26,1.29-.77,1.62l-8.17,6.01c.08-2.75.08-14.8,0-36.15v-21.89c0-.5.21-.88.64-1.13.43-.25.85-.25,1.28,0l6.51,3.25c.34.17.51.46.51.87v3.88c1.87-2.33,3.75-4.13,5.62-5.38,1.87-1.25,3.49-2,4.86-2.25,1.36-.25,2.7-.23,4.02.06,1.32.3,2.39.69,3.2,1.19.81.5,1.57,1.02,2.3,1.56.72.54,1.17.85,1.34.94.25-.41.7-1.23,1.34-2.44.64-1.21,1.09-2.06,1.34-2.57Z"/>
  <path class="cls-1" d="M828.09,83.64c-.17.24-2.15,2.59-5.94,7.06-3.79,4.47-5.85,6.9-6.19,7.3-.43.39-.81.43-1.15.11-.08-.08-.75-.49-1.98-1.23-1.24-.74-2.66-1.61-4.28-2.59-1.62-.98-3.26-1.94-4.92-2.88-1.66-.94-3.04-1.78-4.15-2.53-1.11-.74-1.7-1.15-1.79-1.23v-45.52h-10.73c.17-.39.36-.96.57-1.7.21-.74.36-1.2.45-1.35.77-.08,2.41-.18,4.92-.3,2.51-.12,4.11-.22,4.79-.29v-11.41c.26-.39,1.06-.55,2.43-.47,1.36.08,2.81.28,4.34.59,1.53.32,2.3.59,2.3.82v10.23c.77,0,3.11-.08,7.02-.24,3.92-.16,6.01-.27,6.26-.35.68,0,1.07.16,1.15.47-1.62,1.72-2.34,3.06-2.17,4h-12.26v43.76c0,.47.13.96.38,1.47.26.51.68,1,1.28,1.47.59.47,1.08.85,1.47,1.12.38.27,1.04.66,1.98,1.18.93.51,1.49.84,1.66,1,.51.32,1.02.28,1.53-.11.34-.31,1.53-1.26,3.58-2.82,2.04-1.57,3.94-3.02,5.68-4.35,1.74-1.33,2.7-2.04,2.87-2.12.17-.08.38.04.64.35.26.31.34.51.26.59Z"/>
  <path class="cls-1" d="M853.64,62.23c4.34,0,8.2,1.41,11.56,4.22,3.36,2.82,5.04,5.71,5.04,8.7,0,6.57-2.34,12.07-7.02,16.5-1.28,1.28-3.15,2.45-5.62,3.52-2.47,1.07-4.69,1.83-6.64,2.3-1.96.47-3.36.7-4.21.7-.77,0-1.66-.15-2.68-.45-1.02-.29-2.17-.85-3.45-1.66-1.28-.81-2.43-1.79-3.45-2.94-1.02-1.15-1.9-2.64-2.62-4.48-.73-1.83-1.09-3.86-1.09-6.08l.13-.13c.59,1.54,2.34,3.13,5.24,4.8,2.89,1.66,6.68,2.37,11.37,2.11,1.79-.17,4.36-.7,7.73-1.6s5.6-2.02,6.7-3.39c4.51-9.04,2.34-13.56-6.51-13.56h-4.34c-2.55,0-5.22.02-7.98.06-2.77.05-4.24.06-4.41.06-.51,0-.85-.08-1.02-.25-1.11-.68-2.15-2.16-3.13-4.41-.98-2.26-1.64-3.52-1.98-3.77.51-1.45,2.34-4.78,5.49-9.98,3.15-5.2,5.53-8.83,7.15-10.87.08-.09.72-.73,1.91-1.92,1.62.6,3.83,1.62,6.64,3.07,2.81,1.45,4.85,2.64,6.13,3.58,2.13-2.56,3.49-4.35,4.09-5.37.68.94,1.53,1.49,2.55,1.66-.68,1.02-1.49,2.09-2.43,3.2-.94,1.11-1.77,2.07-2.49,2.88-.73.81-1.6,1.79-2.62,2.94-1.02,1.15-1.88,2.11-2.55,2.88-.26,0-.89-.04-1.92-.13-.08-.34-.81-.87-2.17-1.6-1.36-.72-2.74-1.38-4.15-1.98-1.4-.6-2.45-1.02-3.13-1.28-.51-.17-1.02.12-1.53.89-.6.77-1.94,2.82-4.03,6.14-2.09,3.32-3.22,5.16-3.38,5.5.17,0,2.45.02,6.83.06,4.39.05,7.04.06,7.98.06Z"/>
  <circle class="cls-2" cx="855.03" cy="20.21" r="9.2"/>
  <path class="cls-1" d="M851.51,14.7c.75-.15,1.81-.24,2.83-.24,1.58,0,2.59.29,3.3.93.58.51.9,1.29.9,2.17,0,1.51-.95,2.51-2.15,2.91v.05c.88.31,1.41,1.12,1.68,2.3.37,1.59.64,2.69.88,3.13h-1.52c-.19-.32-.44-1.3-.76-2.73-.34-1.58-.95-2.17-2.29-2.22h-1.39v4.95h-1.47v-11.26ZM852.99,19.9h1.51c1.58,0,2.57-.86,2.57-2.17,0-1.47-1.07-2.12-2.63-2.13-.71,0-1.22.07-1.46.14v4.17Z"/>
  <path class="cls-1" d="M661.44,89.3c-3.52,1.56-6.63,3.15-9.33,4.78-.58.24-1.01.24-1.3,0-1.83-1.55-3.31-3.27-4.41-5.15-1.11-1.88-1.88-3.88-2.32-6.01-.43-2.13-.7-3.84-.8-5.15-.1-1.31-.14-2.98-.14-5.03,1.16-.16,10.9-1.23,29.23-3.19l.43-5.15-5.21.98c.39-1.39,1.5-4.58,3.33-9.57.39-.9-1.38-2.86-5.28-5.89-3.91-3.03-6.68-4.91-8.32-5.64-1.35-.57-2.92-.84-4.7-.8-1.79.04-3.26.47-4.41,1.29-7.14,4.91-11.82,8.26-14.04,10.06-.77.66-1.16,1.27-1.16,1.84v23.67c0,.49.09,1.09.29,1.78.19.7.51,1.59.94,2.7.44,1.1,1.09,2.29,1.96,3.56.87,1.27,1.9,2.6,3.11,3.99,1.21,1.39,2.8,2.86,4.77,4.41,1.98,1.56,4.17,3.03,6.59,4.42l.58.25c3.18-2.86,6.95-5.66,11.29-8.4,4.34-2.74,7.91-4.64,10.71-5.71v-2.7c-.49.16-1.69.59-3.62,1.29-1.93.7-4.66,1.82-8.18,3.37ZM643.13,66.43v-14.17c1.93-1.63,4.24-3.15,6.95-4.54.67-.65,1.74-.29,3.18,1.1,3.38,3.43,5.6,5.6,6.66,6.5,1.06.98,1.35,2.13.87,3.43-.1.33-.39,1.29-.87,2.88-.48,1.59-.94,2.9-1.38,3.92-.43,1.02-.84,1.57-1.23,1.66-8.68,1.55-13.41,2.37-14.18,2.45v-3.25Z"/>
  <path class="cls-1" d="M780.92,89.3c-3.52,1.56-6.63,3.15-9.33,4.78-.58.24-1.01.24-1.3,0-1.83-1.55-3.31-3.27-4.41-5.15-1.11-1.88-1.88-3.88-2.32-6.01-.43-2.13-.7-3.84-.8-5.15-.1-1.31-.14-2.98-.14-5.03,1.16-.16,10.9-1.23,29.23-3.19l.43-5.15-5.21.98c.39-1.39,1.5-4.58,3.33-9.57.39-.9-1.38-2.86-5.28-5.89-3.91-3.03-6.68-4.91-8.32-5.64-1.35-.57-2.92-.84-4.7-.8-1.79.04-3.26.47-4.41,1.29-7.14,4.91-11.82,8.26-14.04,10.06-.77.66-1.16,1.27-1.16,1.84v23.67c0,.49.09,1.09.29,1.78.19.7.51,1.59.94,2.7.44,1.1,1.09,2.29,1.96,3.56.87,1.27,1.9,2.6,3.11,3.99,1.21,1.39,2.8,2.86,4.77,4.41,1.98,1.56,4.17,3.03,6.59,4.42l.58.25c3.18-2.86,6.95-5.66,11.29-8.4,4.34-2.74,7.91-4.64,10.71-5.71v-2.7c-.49.16-1.69.59-3.62,1.29-1.93.7-4.66,1.82-8.18,3.37ZM762.62,66.43v-14.17c1.93-1.63,4.24-3.15,6.95-4.54.67-.65,1.74-.29,3.18,1.1,3.38,3.43,5.6,5.6,6.66,6.5,1.06.98,1.35,2.13.87,3.43-.1.33-.39,1.29-.87,2.88-.48,1.59-.94,2.9-1.38,3.92-.43,1.02-.84,1.57-1.23,1.66-8.68,1.55-13.41,2.37-14.18,2.45v-3.25Z"/>
</svg>