<svg xmlns="http://www.w3.org/2000/svg" viewBox="0 0 1000 160" preserveAspectRatio="none"><defs><linearGradient id="line" x1="0" x2="1"><stop offset="0" stop-color="#36c8ff"/><stop offset=".48" stop-color="#f8d56b"/><stop offset="1" stop-color="#ba43ff"/></linearGradient><filter id="glow"><feGaussianBlur stdDeviation="3" result="b"/><feMerge><feMergeNode in="b"/><feMergeNode in="SourceGraphic"/></feMerge></filter></defs><line x1="65" y1="80" x2="935" y2="80" stroke="url(#line)" stroke-width="4" filter="url(#glow)"/><g stroke="url(#line)" stroke-width="3" filter="url(#glow)"><line x1="65.00" y1="52" x2="65.00" y2="108"/>
<line x1="86.75" y1="66" x2="86.75" y2="94"/>
<line x1="108.50" y1="66" x2="108.50" y2="94"/>
<line x1="130.25" y1="66" x2="130.25" y2="94"/>
<line x1="152.00" y1="66" x2="152.00" y2="94"/>
<line x1="173.75" y1="52" x2="173.75" y2="108"/>
<line x1="195.50" y1="66" x2="195.50" y2="94"/>
<line x1="217.25" y1="66" x2="217.25" y2="94"/>
<line x1="239.00" y1="66" x2="239.00" y2="94"/>
<line x1="260.75" y1="66" x2="260.75" y2="94"/>
<line x1="282.50" y1="52" x2="282.50" y2="108"/>
<line x1="304.25" y1="66" x2="304.25" y2="94"/>
<line x1="326.00" y1="66" x2="326.00" y2="94"/>
<line x1="347.75" y1="66" x2="347.75" y2="94"/>
<line x1="369.50" y1="66" x2="369.50" y2="94"/>
<line x1="391.25" y1="52" x2="391.25" y2="108"/>
<line x1="413.00" y1="66" x2="413.00" y2="94"/>
<line x1="434.75" y1="66" x2="434.75" y2="94"/>
<line x1="456.50" y1="66" x2="456.50" y2="94"/>
<line x1="478.25" y1="66" x2="478.25" y2="94"/>
<line x1="500.00" y1="52" x2="500.00" y2="108"/>
<line x1="521.75" y1="66" x2="521.75" y2="94"/>
<line x1="543.50" y1="66" x2="543.50" y2="94"/>
<line x1="565.25" y1="66" x2="565.25" y2="94"/>
<line x1="587.00" y1="66" x2="587.00" y2="94"/>
<line x1="608.75" y1="52" x2="608.75" y2="108"/>
<line x1="630.50" y1="66" x2="630.50" y2="94"/>
<line x1="652.25" y1="66" x2="652.25" y2="94"/>
<line x1="674.00" y1="66" x2="674.00" y2="94"/>
<line x1="695.75" y1="66" x2="695.75" y2="94"/>
<line x1="717.50" y1="52" x2="717.50" y2="108"/>
<line x1="739.25" y1="66" x2="739.25" y2="94"/>
<line x1="761.00" y1="66" x2="761.00" y2="94"/>
<line x1="782.75" y1="66" x2="782.75" y2="94"/>
<line x1="804.50" y1="66" x2="804.50" y2="94"/>
<line x1="826.25" y1="52" x2="826.25" y2="108"/>
<line x1="848.00" y1="66" x2="848.00" y2="94"/>
<line x1="869.75" y1="66" x2="869.75" y2="94"/>
<line x1="891.50" y1="66" x2="891.50" y2="94"/>
<line x1="913.25" y1="66" x2="913.25" y2="94"/>
<line x1="935.00" y1="52" x2="935.00" y2="108"/></g><path d="M35 80l34-34M35 80l34 34" fill="none" stroke="#36c8ff" stroke-width="9" stroke-linecap="round"/><path d="M965 80l-34-34M965 80l-34 34" fill="none" stroke="#ba43ff" stroke-width="9" stroke-linecap="round"/></svg>